<svg width="20" height="21" viewBox="0 0 20 21" fill="none" xmlns="http://www.w3.org/2000/svg">
<g id="Icon">
<path id="Vector 431 (Stroke)" fill-rule="evenodd" clip-rule="evenodd" d="M6.875 3.625L16.25 3.625C16.4158 3.625 16.5747 3.69085 16.6919 3.80806C16.8092 3.92527 16.875 4.08424 16.875 4.25V13.625C16.875 13.9702 16.5952 14.25 16.25 14.25C15.9048 14.25 15.625 13.9702 15.625 13.625V5.75888L4.19194 17.1919C3.94786 17.436 3.55214 17.436 3.30806 17.1919C3.06398 16.9479 3.06398 16.5521 3.30806 16.3081L14.7411 4.875L6.875 4.875C6.52982 4.875 6.25 4.59518 6.25 4.25C6.25 3.90482 6.52982 3.625 6.875 3.625Z" fill="#141414"/>
</g>
</svg>
