<svg width="50" height="50" viewBox="0 0 50 50" fill="none" xmlns="http://www.w3.org/2000/svg">
<g id="Icon">
<g id="Group 260">
<path id="Ellipse 132" d="M25 15C25 20.5228 20.5228 25 15 25C9.47715 25 5 20.5228 5 15C5 9.47715 9.47715 5 15 5C20.5228 5 25 9.47715 25 15Z" fill="#404040"/>
<path id="Ellipse 133" d="M45 15C45 20.5228 40.5228 25 35 25C29.4772 25 25 20.5228 25 15C25 9.47715 29.4772 5 35 5C40.5228 5 45 9.47715 45 15Z" fill="#FFD11A"/>
<path id="Ellipse 134" d="M45 35C45 40.5228 40.5228 45 35 45C29.4772 45 25 40.5228 25 35C25 29.4772 29.4772 25 35 25C40.5228 25 45 29.4772 45 35Z" fill="#404040"/>
<path id="Ellipse 135" d="M25 35C25 40.5228 20.5228 45 15 45C9.47715 45 5 40.5228 5 35C5 29.4772 9.47715 25 15 25C20.5228 25 25 29.4772 25 35Z" fill="#FFD11A"/>
</g>
</g>
</svg>
