<svg width="50" height="50" viewBox="0 0 50 50" fill="none" xmlns="http://www.w3.org/2000/svg">
<path d="M5 18.7498C5 24.2963 8.28407 29.0757 13.0138 31.2498H5C5 38.8437 11.1561 44.9998 18.75 44.9998C24.2965 44.9998 29.076 41.7157 31.25 36.986V44.9998C38.8439 44.9998 45 38.8437 45 31.2498C45 25.7033 41.7159 20.9238 36.9862 18.7498H45C45 11.1558 38.8439 4.99976 31.25 4.99976C25.7035 4.99976 20.924 8.28382 18.75 13.0135V4.99976C11.1561 4.99976 5 11.1558 5 18.7498Z" fill="#404040"/>
<path d="M31.25 24.9999C31.25 28.4517 28.4518 31.2499 25 31.2499C21.5482 31.2499 18.75 28.4517 18.75 24.9999C18.75 21.5481 21.5482 18.7499 25 18.7499C28.4518 18.7499 31.25 21.5481 31.25 24.9999Z" fill="#FFD11A"/>
</svg>
