<svg width="20" height="21" viewBox="0 0 20 21" fill="none" xmlns="http://www.w3.org/2000/svg">
<g id="Icon">
<path id="Union (Stroke)" d="M9.70414 17.9255L9.6987 17.9226L9.67982 17.9124C9.66375 17.9037 9.64076 17.8911 9.61131 17.8746C9.55243 17.8418 9.4677 17.7937 9.3608 17.7308C9.14708 17.605 8.84431 17.4199 8.48212 17.1791C7.75895 16.6984 6.79268 15.9917 5.82383 15.0886C3.90651 13.3013 1.875 10.6459 1.875 7.375C1.875 4.93495 3.928 3 6.40625 3C7.86365 3 9.1686 3.66591 10 4.70966C10.8314 3.66591 12.1363 3 13.5938 3C16.072 3 18.125 4.93495 18.125 7.375C18.125 10.6459 16.0935 13.3013 14.1762 15.0886C13.2073 15.9917 12.241 16.6984 11.5179 17.1791C11.1557 17.4199 10.8529 17.605 10.6392 17.7308C10.5323 17.7937 10.4476 17.8418 10.3887 17.8746C10.3592 17.8911 10.3363 17.9037 10.3202 17.9124L10.3013 17.9226L10.2959 17.9255L10.2936 17.9268C10.1103 18.0241 9.88974 18.0241 9.70644 17.9268L9.70414 17.9255Z" stroke="#666666" stroke-width="1.5" stroke-linejoin="round"/>
</g>
</svg>
