<svg width="20" height="20" viewBox="0 0 20 20" fill="none" xmlns="http://www.w3.org/2000/svg">
<g id="Icon">
<path id="Vector" d="M17.3873 1.33301H2.61303C2.27368 1.33301 1.94822 1.46782 1.70826 1.70778C1.4683 1.94774 1.3335 2.27319 1.3335 2.61255V17.3868C1.3335 17.7262 1.4683 18.0516 1.70826 18.2916C1.94822 18.5315 2.27368 18.6663 2.61303 18.6663H17.3873C17.7266 18.6663 18.0521 18.5315 18.2921 18.2916C18.532 18.0516 18.6668 17.7262 18.6668 17.3868V2.61255C18.6668 2.27319 18.532 1.94774 18.2921 1.70778C18.0521 1.46782 17.7266 1.33301 17.3873 1.33301ZM6.49979 16.0988H3.89377V7.82097H6.49979V16.0988ZM5.19498 6.67384C4.89937 6.67218 4.61088 6.58298 4.36592 6.41752C4.12095 6.25205 3.93049 6.01772 3.81857 5.74412C3.70666 5.47051 3.6783 5.16988 3.73707 4.88017C3.79585 4.59046 3.93913 4.32465 4.14883 4.11629C4.35853 3.90794 4.62525 3.76637 4.91533 3.70945C5.20541 3.65254 5.50586 3.68283 5.77874 3.7965C6.05162 3.91017 6.28472 4.10213 6.44861 4.34815C6.6125 4.59417 6.69984 4.88323 6.69961 5.17884C6.7024 5.37675 6.66531 5.5732 6.59056 5.75648C6.51581 5.93975 6.40493 6.1061 6.26452 6.24561C6.12411 6.38512 5.95705 6.49493 5.7733 6.56851C5.58955 6.64208 5.39287 6.6779 5.19498 6.67384ZM16.1053 16.1061H13.5005V11.5837C13.5005 10.25 12.9336 9.83838 12.2017 9.83838C11.429 9.83838 10.6706 10.421 10.6706 11.6175V16.1061H8.06461V7.82699H10.5707V8.97412H10.6044C10.856 8.46495 11.7371 7.59468 13.0816 7.59468C14.5357 7.59468 16.1066 8.45773 16.1066 10.9855L16.1053 16.1061Z" fill="white"/>
</g>
</svg>
