<svg width="20" height="20" viewBox="0 0 20 20" fill="none" xmlns="http://www.w3.org/2000/svg">
<g id="Icon">
<g id="Group">
<path id="Vector" d="M11.2812 10.1897C11.2812 13.332 8.75578 15.8793 5.6407 15.8793C2.52561 15.8793 0 13.3314 0 10.1897C0 7.04806 2.52542 4.5 5.6407 4.5C8.75597 4.5 11.2812 7.04749 11.2812 10.1897Z" fill="white"/>
<path id="Vector_2" d="M17.4688 10.1895C17.4688 13.1472 16.2061 15.5459 14.6485 15.5459C13.0908 15.5459 11.8281 13.1472 11.8281 10.1895C11.8281 7.2317 13.0906 4.83301 14.6483 4.83301C16.2059 4.83301 17.4686 7.23094 17.4686 10.1895" fill="white"/>
<path id="Vector_3" d="M19.9998 10.1901C19.9998 12.8396 19.5557 14.9887 19.0078 14.9887C18.4599 14.9887 18.0161 12.8402 18.0161 10.1901C18.0161 7.54014 18.4601 5.3916 19.0078 5.3916C19.5555 5.3916 19.9998 7.53994 19.9998 10.1901Z" fill="white"/>
</g>
</g>
</svg>
